<svg width="169" height="83" viewBox="0 0 169 83" fill="none" xmlns="http://www.w3.org/2000/svg">
<path d="M10.6879 20.1081C11.8356 13.3541 17.4748 8.27455 24.3116 7.83638L135.489 0.710935C142.059 0.289884 148.115 4.2652 150.341 10.4603L162.738 44.9529C165.945 53.8779 160.035 63.4712 150.621 64.62L19.6807 80.5984C9.86488 81.7962 1.665 73.2024 3.32172 63.4536L10.6879 20.1081Z" fill="#A7DE93"/>
<path d="M49.1923 40.91C49.1923 41.795 48.5923 42.29 47.5723 42.29H45.4573V39.47H47.5273C48.5473 39.47 49.1923 40.01 49.1923 40.91ZM48.9373 36.545C48.9373 37.4 48.3673 37.85 47.3773 37.85H45.4573V35.225H47.3773C48.3673 35.225 48.9373 35.705 48.9373 36.545ZM51.3223 41.165C51.3223 39.935 50.4823 38.84 49.2973 38.63C50.3173 38.3 51.0823 37.505 51.0823 36.23C51.0823 34.67 49.8673 33.53 47.6773 33.53H43.3573V44H47.8723C50.0473 44 51.3223 42.83 51.3223 41.165ZM61.0209 39.845C61.0209 37.22 59.1459 35.555 56.7459 35.555C54.3459 35.555 52.4709 37.22 52.4709 39.845C52.4709 42.455 54.2859 44.135 56.6859 44.135C59.1009 44.135 61.0209 42.455 61.0209 39.845ZM54.6009 39.845C54.6009 38.18 55.6059 37.385 56.7159 37.385C57.8259 37.385 58.8609 38.18 58.8609 39.845C58.8609 41.495 57.7959 42.305 56.6859 42.305C55.5609 42.305 54.6009 41.495 54.6009 39.845ZM70.5864 39.845C70.5864 37.22 68.7114 35.555 66.3114 35.555C63.9114 35.555 62.0364 37.22 62.0364 39.845C62.0364 42.455 63.8514 44.135 66.2514 44.135C68.6664 44.135 70.5864 42.455 70.5864 39.845ZM64.1664 39.845C64.1664 38.18 65.1714 37.385 66.2814 37.385C67.3914 37.385 68.4264 38.18 68.4264 39.845C68.4264 41.495 67.3614 42.305 66.2514 42.305C65.1264 42.305 64.1664 41.495 64.1664 39.845ZM72.1268 44H74.2268V40.46L77.0468 44H79.7768L76.0868 39.86L79.7468 35.69H77.0168L74.2268 39.215V32.9H72.1268V44ZM91.3158 33.515V40.715L86.5608 33.515H84.4608V44H86.5608V36.815L91.3158 44H93.4158V33.515H91.3158ZM103.516 39.845C103.516 37.22 101.641 35.555 99.2411 35.555C96.8411 35.555 94.9661 37.22 94.9661 39.845C94.9661 42.455 96.7811 44.135 99.1811 44.135C101.596 44.135 103.516 42.455 103.516 39.845ZM97.0961 39.845C97.0961 38.18 98.1011 37.385 99.2111 37.385C100.321 37.385 101.356 38.18 101.356 39.845C101.356 41.495 100.291 42.305 99.1811 42.305C98.0561 42.305 97.0961 41.495 97.0961 39.845ZM106.571 44H108.851L110.366 38.195L111.881 44H114.146L116.576 35.69H114.566L113.096 42.005L111.536 35.69H109.316L107.726 42.02L106.256 35.69H104.126L106.571 44Z" fill="#303056"/>
</svg>
